<?xml version="1.0" standalone="no"?>
<!DOCTYPE svg PUBLIC "-//W3C//DTD SVG 20010904//EN"
 "http://www.w3.org/TR/2001/REC-SVG-20010904/DTD/svg10.dtd">
<svg version="1.0" xmlns="http://www.w3.org/2000/svg"
 width="1920.000000pt" height="1920.000000pt" viewBox="0 0 1920.000000 1920.000000"
 preserveAspectRatio="xMidYMid meet">
<metadata>
Created by potrace 1.14, written by Peter Selinger 2001-2017
</metadata>
<g transform="translate(0.000000,1920.000000) scale(0.100000,-0.100000)"
fill="#000000" stroke="none">
<path d="M0 9600 l0 -9600 9600 0 9600 0 0 9600 0 9600 -9600 0 -9600 0 0
-9600z m9990 5565 c861 -20 1177 -52 1640 -170 1261 -319 2257 -1121 2841
-2286 305 -611 490 -1288 549 -2014 48 -596 54 -713 54 -1050 0 -341 -3 -393
-54 -970 -73 -817 -222 -1388 -522 -1990 -102 -206 -197 -370 -287 -498 -171
-244 -177 -251 -192 -241 -8 4 -9 3 -5 -5 9 -14 -131 -184 -145 -175 -5 3 -18
-5 -28 -17 -18 -22 -19 -22 -44 -6 -30 19 -47 22 -47 6 0 -5 4 -7 10 -4 5 3
15 -3 22 -15 16 -26 32 -25 58 2 11 12 22 19 24 17 3 -3 -13 -22 -35 -43 -22
-22 -37 -32 -33 -23 4 11 1 17 -9 17 -8 0 -17 7 -21 15 -4 12 -24 15 -86 15
-64 0 -80 3 -80 15 0 11 11 15 40 15 29 0 40 4 40 15 0 11 -11 15 -40 15 -22
0 -40 5 -40 10 0 6 -18 10 -40 10 -29 0 -40 4 -40 15 0 11 -11 15 -39 15 -33
0 -40 4 -45 25 -5 21 -12 25 -41 25 -24 0 -35 5 -35 15 0 11 -11 15 -40 15
-29 0 -40 -4 -40 -15 0 -11 -11 -15 -40 -15 -38 0 -40 2 -40 30 0 28 -2 30
-40 30 -22 0 -40 5 -40 10 0 6 -34 10 -81 10 l-81 0 7 30 c7 30 6 30 -39 30
-34 0 -46 -4 -46 -15 0 -11 -11 -15 -40 -15 -36 0 -40 3 -40 25 0 25 -1 25
-80 25 -64 0 -80 3 -80 15 0 11 -11 15 -40 15 -29 0 -40 -4 -40 -15 0 -11 -11
-15 -40 -15 -38 0 -40 2 -40 30 l0 30 -120 0 c-73 0 -120 4 -120 10 0 6 -31
10 -72 10 -56 0 -69 3 -60 12 14 14 16 28 3 28 -4 0 -25 -13 -46 -30 -38 -30
-113 -69 -175 -90 -19 -6 -84 -14 -145 -16 -60 -2 -1050 -6 -2200 -8 -1149 -3
-2099 -7 -2110 -9 -11 -2 -25 0 -32 5 -7 5 -20 8 -30 5 -13 -3 -11 -5 7 -7 23
-1 23 -2 5 -10 -16 -7 -13 -9 17 -9 34 -1 38 -4 36 -26 -2 -22 -7 -25 -40 -25
-27 0 -38 -4 -38 -15 0 -11 12 -15 43 -17 l42 -1 -40 -4 c-22 -3 -42 -8 -45
-12 -7 -11 -160 -29 -160 -19 0 4 -36 8 -80 8 -79 0 -80 0 -80 -25 0 -22 -4
-25 -40 -25 -29 0 -40 -4 -40 -15 0 -12 -16 -15 -80 -15 -47 0 -80 -4 -80 -10
0 -5 -18 -10 -40 -10 -38 0 -40 -2 -40 -30 0 -28 -2 -30 -40 -30 -22 0 -40 -4
-40 -10 0 -5 -16 -10 -35 -10 -21 0 -35 5 -35 13 0 8 -3 8 -9 -2 -7 -11 -10
-9 -13 10 -3 22 -9 18 -75 -49 -40 -41 -73 -68 -74 -60 0 9 -2 9 -6 -2 -3 -8
-21 -30 -39 -48 -38 -37 -42 -49 -17 -54 15 -3 15 -4 0 -17 -15 -12 -17 -11
-17 3 0 10 -9 16 -25 16 -22 0 -25 -4 -25 -40 0 -36 -3 -40 -24 -40 -24 0 -86
-51 -86 -71 0 -5 -7 -9 -15 -9 -8 0 -15 -4 -15 -10 0 -5 -9 -10 -20 -10 -11 0
-23 -7 -26 -15 -4 -10 -20 -15 -45 -15 -28 0 -39 -4 -39 -15 0 -10 -11 -15
-35 -15 -38 0 -47 -15 -15 -25 12 -4 20 -15 20 -27 0 -11 8 -27 18 -34 16 -13
16 -15 -1 -28 -20 -15 -47 -11 -47 6 0 7 5 6 14 -1 10 -9 16 -8 26 4 13 16 12
17 -32 19 -15 1 -24 -2 -21 -7 3 -6 -21 10 -53 34 -86 64 -109 83 -113 94 -6
21 -35 46 -48 41 -14 -6 -128 92 -265 227 -499 491 -877 1110 -1101 1802 -173
535 -230 956 -268 1965 -13 358 10 1090 51 1605 65 805 307 1533 727 2179 220
337 510 663 843 946 59 50 188 150 250 193 678 474 1429 754 2275 847 232 26
1150 60 1415 53 63 -1 221 -5 350 -8z m2086 -9057 c-1 -18 -7 -23 -33 -24 -18
-1 -33 0 -33 1 0 2 62 44 66 45 1 0 1 -10 0 -22z m-76 -48 c0 -5 -7 -7 -15 -4
-8 4 -15 8 -15 10 0 2 7 4 15 4 8 0 15 -4 15 -10z m-50 -20 c-20 -13 -33 -13
-25 0 3 6 14 10 23 10 15 0 15 -2 2 -10z m-65 -20 c14 -7 8 -8 -20 -3 -22 3
-42 7 -44 9 -9 8 45 2 64 -6z m95 0 c0 -5 -7 -10 -16 -10 -8 0 -12 5 -9 10 3
6 10 10 16 10 5 0 9 -4 9 -10z m-4279 -20 c33 0 59 -4 59 -10 0 -6 -48 -10
-125 -10 -69 0 -125 4 -125 8 0 19 18 24 74 18 32 -3 85 -6 117 -6z m437 3
c-10 -2 -28 -2 -40 0 -13 2 -5 4 17 4 22 1 32 -1 23 -4z m-395 -50 c-13 -2
-33 -2 -45 0 -13 2 -3 4 22 4 25 0 35 -2 23 -4z m6037 -297 c0 -9 -47 -56 -56
-56 -4 0 5 14 21 30 28 30 35 34 35 26z m-7380 -76 c0 -5 -5 -10 -11 -10 -5 0
-7 5 -4 10 3 6 8 10 11 10 2 0 4 -4 4 -10z m7291 -23 c-10 -9 -11 -8 -5 6 3
10 9 15 12 12 3 -3 0 -11 -7 -18z m-7951 -222 c7 -8 8 -15 2 -15 -5 0 -15 7
-22 15 -7 8 -8 15 -2 15 5 0 15 -7 22 -15z m337 -61 c-3 -3 -12 -4 -19 -1 -8
3 -5 6 6 6 11 1 17 -2 13 -5z m-6 -191 c13 -16 12 -17 -3 -4 -10 7 -18 15 -18
17 0 8 8 3 21 -13z"/>
<path d="M11769 6513 c-13 -16 -12 -17 4 -4 9 7 17 15 17 17 0 8 -8 3 -21 -13z"/>
<path d="M12041 6474 c0 -11 3 -14 6 -6 3 7 2 16 -1 19 -3 4 -6 -2 -5 -13z"/>
<path d="M12217 6307 l-17 -32 20 24 c17 20 26 41 18 41 -2 0 -11 -15 -21 -33z"/>
<path d="M7274 6306 c1 -8 5 -18 8 -22 4 -3 5 1 4 10 -1 8 -5 18 -8 22 -4 3
-5 -1 -4 -10z"/>
<path d="M10253 6313 c9 -2 23 -2 30 0 6 3 -1 5 -18 5 -16 0 -22 -2 -12 -5z"/>
<path d="M11863 6307 c16 -13 16 -15 1 -21 -9 -4 -33 -4 -53 -1 l-36 5 34 -11
c25 -7 42 -7 62 2 28 11 40 29 20 29 -5 0 -18 3 -28 6 -17 5 -17 5 0 -9z"/>
<path d="M11788 6303 c6 -2 18 -2 25 0 6 3 1 5 -13 5 -14 0 -19 -2 -12 -5z"/>
<path d="M9543 6293 c9 -2 25 -2 35 0 9 3 1 5 -18 5 -19 0 -27 -2 -17 -5z"/>
<path d="M9673 6293 c43 -2 110 -2 150 0 40 1 5 3 -78 3 -82 0 -115 -2 -72 -3z"/>
<path d="M9918 6293 c12 -2 30 -2 40 0 9 3 -1 5 -23 4 -22 0 -30 -2 -17 -4z"/>
<path d="M10000 6290 c0 -6 60 -10 170 -10 97 0 170 4 170 9 0 5 -74 10 -170
11 -110 0 -170 -3 -170 -10z"/>
<path d="M10395 6290 c-4 -6 15 -10 49 -10 31 0 56 5 56 10 0 6 -22 10 -49 10
-28 0 -53 -4 -56 -10z"/>
<path d="M10540 6291 c0 -10 568 -6 578 4 3 3 -126 5 -286 5 -176 0 -292 -4
-292 -9z"/>
<path d="M7693 6263 c15 -2 37 -2 50 0 12 2 0 4 -28 4 -27 0 -38 -2 -22 -4z"/>
<path d="M8018 6263 c56 -2 148 -2 205 0 56 1 10 3 -103 3 -113 0 -159 -2
-102 -3z"/>
<path d="M8418 6263 c12 -2 32 -2 45 0 12 2 2 4 -23 4 -25 0 -35 -2 -22 -4z"/>
<path d="M8578 6263 c6 -2 18 -2 25 0 6 3 1 5 -13 5 -14 0 -19 -2 -12 -5z"/>
<path d="M8802 6265 c7 -7 2879 -7 2886 0 3 3 -646 5 -1443 5 -797 0 -1446 -2
-1443 -5z"/>
<path d="M11718 6263 c12 -2 32 -2 45 0 12 2 2 4 -23 4 -25 0 -35 -2 -22 -4z"/>
<path d="M12186 6261 c-3 -5 1 -11 9 -14 9 -4 12 -1 8 9 -6 16 -10 17 -17 5z"/>
<path d="M12220 6261 c0 -6 4 -13 10 -16 6 -3 7 1 4 9 -7 18 -14 21 -14 7z"/>
<path d="M12147 6214 c-3 -3 -3 -12 0 -20 4 -10 0 -12 -13 -7 -17 6 -17 5 -5
-10 20 -25 27 -21 27 13 0 32 0 33 -9 24z"/>
<path d="M7040 6176 c0 -2 7 -9 15 -16 9 -7 15 -8 15 -2 0 5 -7 12 -15 16 -8
3 -15 4 -15 2z"/>
<path d="M7093 6133 c4 -3 1 -13 -6 -22 -11 -14 -10 -14 5 -2 16 12 16 31 1
31 -4 0 -3 -3 0 -7z"/>
<path d="M7127 6109 c7 -7 15 -10 18 -7 3 3 -2 9 -12 12 -14 6 -15 5 -6 -5z"/>
<path d="M7272 6033 c-10 -10 -10 -13 -1 -13 7 0 10 -2 7 -5 -3 -4 -18 -3 -33
1 -20 5 -23 9 -13 15 9 6 7 9 -9 9 -15 0 -21 -6 -20 -18 1 -15 9 -19 44 -17
40 1 73 14 42 16 -8 1 0 4 16 8 l30 7 -26 5 c-14 3 -30 0 -37 -8z"/>
<path d="M7328 5992 c-31 -4 -35 -14 -13 -32 9 -7 25 -10 42 -5 15 3 22 9 16
13 -5 4 -12 12 -14 17 -2 6 -16 9 -31 7z"/>
<path d="M7285 5960 c-4 -6 -14 -10 -23 -9 -41 4 -62 -2 -62 -17 0 -12 9 -14
43 -12 23 2 40 7 39 12 -2 5 2 12 9 17 8 4 11 11 7 14 -3 4 -9 1 -13 -5z"/>
<path d="M7328 5913 c6 -2 18 -2 25 0 6 3 1 5 -13 5 -14 0 -19 -2 -12 -5z"/>
<path d="M6800 5855 c0 -11 11 -15 40 -15 29 0 40 4 40 15 0 11 -11 15 -40 15
-29 0 -40 -4 -40 -15z"/>
<path d="M13873 5795 c-9 -24 1 -27 15 -5 8 13 8 20 2 20 -6 0 -13 -7 -17 -15z"/>
<path d="M5820 5276 c0 -2 8 -10 18 -17 15 -13 16 -12 3 4 -13 16 -21 21 -21
13z"/>
<path d="M5886 5264 c-9 -8 -16 -18 -16 -21 0 -8 33 -32 45 -32 6 0 1 6 -10
15 -16 12 -18 18 -7 34 15 24 9 26 -12 4z"/>
<path d="M12050 6100 c0 -5 5 -10 10 -10 6 0 10 5 10 10 0 6 -4 10 -10 10 -5
0 -10 -4 -10 -10z"/>
</g>
</svg>
